# xmcd
#
# Track frame offsets: 
#        150
#        12183
#        27241
#        42245
#        54331
#        68492
#        81036
#        93418
#        105031
#        115977
#        127314
#        137325
#        151354
#        164676
#
# Disc length: 2387 seconds
#
# Revision: 0
# Processed by: cddbd v1.5.2PL0 Copyright (c) Steve Scherf et al.
# Submitted via: ExactAudioCopyFreeDBPlugin 1.0
#
DISCID=a909510e
DTITLE=Hank Snow - Milestones Of A Cuntry Legend [CD 1)
DYEAR=1900
DGENRE=Country
TTITLE0=You Broke the Chain That Held Our Hearts
TTITLE1=No Golden Tomorrow Ahead
TTITLE2=Wasted Love
TTITLE3=My Two Timin´ Woman
TTITLE4=Somewhere Along Life´s Highway
TTITLE5=Within This Broken Heart of Mine
TTITLE6=Zeb Turney´s Gal
TTITLE7=Golden River
TTITLE8=Moanin´
TTITLE9=I Knew That We´d Meet Again
TTITLE10=(I Wish Upon) My Little Golden Horseshoe
TTITLE11=Yodeling Cowboy
TTITLE12=Confused With the Blue
TTITLE13=On That Old Hawaiian Shore with You
EXTD=
EXTT0=
EXTT1=
EXTT2=
EXTT3=
EXTT4=
EXTT5=
EXTT6=
EXTT7=
EXTT8=
EXTT9=
EXTT10=
EXTT11=
EXTT12=
EXTT13=
PLAYORDER=
